<?xml version="1.0" encoding="utf-8"?>
<!-- Generator: Adobe Illustrator 24.1.0, SVG Export Plug-In . SVG Version: 6.00 Build 0)  -->
<svg version="1.1" id="Mini_Electric_Safety_Shutoff_Valve"
	 xmlns="http://www.w3.org/2000/svg" xmlns:xlink="http://www.w3.org/1999/xlink" x="0px" y="0px" viewBox="0 0 242 300"
	 style="enable-background:new 0 0 242 300;" xml:space="preserve">
<style type="text/css">
	.st0{fill:#30FF2A;stroke:#8C8C91;stroke-width:0.75;stroke-linecap:round;stroke-linejoin:round;stroke-miterlimit:10;}
	.st1{fill:#30FF2A;stroke:#8C8C91;stroke-width:0.75;stroke-linejoin:round;stroke-miterlimit:10;}
	.st2{fill:#30FF2A;}
	.st3{fill:#30FF2A;stroke:#FFFFFF;stroke-width:0.75;stroke-linecap:round;stroke-linejoin:round;stroke-miterlimit:10;}
	.st4{fill:#30FF2A;stroke:#646567;stroke-width:0.75;stroke-linecap:round;stroke-linejoin:round;stroke-miterlimit:10;}
	
		.st5{fill:url(#Bevelled_Edge_1_);stroke:#8C8C91;stroke-width:0.75;stroke-linecap:round;stroke-linejoin:round;stroke-miterlimit:10;}
	.st6{fill:url(#Shape_Edge_Right_1_);}
	.st7{fill:#FFFF00;}
	.st8{fill:url(#Shape_Edge_Left_1_);}
	.st9{fill:#424242;stroke:#646567;stroke-width:0.75;stroke-linecap:round;stroke-linejoin:round;stroke-miterlimit:10;}
	.st10{fill:#7C7C7B;stroke:#7C7C7B;stroke-width:0.75;stroke-linecap:round;stroke-linejoin:round;stroke-miterlimit:10;}
	
		.st11{fill:url(#Shape_Side_Right_1_);stroke:#8C8C91;stroke-width:0.75;stroke-linecap:round;stroke-linejoin:round;stroke-miterlimit:10;}
	
		.st12{fill:url(#Shape_Side_Middle_1_);stroke:#8C8C91;stroke-width:0.75;stroke-linecap:round;stroke-linejoin:round;stroke-miterlimit:10;}
	
		.st13{fill:url(#Shape_Side_Left_1_);stroke:#8C8C91;stroke-width:0.75;stroke-linecap:round;stroke-linejoin:round;stroke-miterlimit:10;}
	
		.st14{fill:url(#Shape_Side_Right_2_);stroke:#8C8C91;stroke-width:0.75;stroke-linecap:round;stroke-linejoin:round;stroke-miterlimit:10;}
	
		.st15{fill:url(#Shape_Side_Middle_2_);stroke:#8C8C91;stroke-width:0.75;stroke-linecap:round;stroke-linejoin:round;stroke-miterlimit:10;}
	
		.st16{fill:url(#Shape_Side_Left_2_);stroke:#8C8C91;stroke-width:0.75;stroke-linecap:round;stroke-linejoin:round;stroke-miterlimit:10;}
	.st17{fill:url(#Reflection_Line_Vertical_Right_1_);}
	.st18{fill:url(#Reflection_Line_Vertical_Left_1_);}
	.st19{fill:url(#Edge_Top_1_);stroke:#8C8C91;stroke-width:0.75;stroke-linecap:round;stroke-linejoin:round;stroke-miterlimit:10;}
	
		.st20{fill:url(#Edge_Bottom_1_);stroke:#646567;stroke-width:0.75;stroke-linecap:round;stroke-linejoin:round;stroke-miterlimit:10;}
	.st21{fill:#9A9A99;stroke:#8C8C91;stroke-width:0.75;stroke-linejoin:round;stroke-miterlimit:10;}
	.st22{fill:#9A9A99;stroke:#8C8C91;stroke-width:0.75;stroke-linecap:round;stroke-linejoin:round;stroke-miterlimit:10;}
	.st23{fill:#575756;stroke:#575756;stroke-width:0.75;stroke-linejoin:round;stroke-miterlimit:10;}
	
		.st24{fill:url(#Pipe_Right_1_);stroke:#646567;stroke-width:0.75;stroke-linecap:round;stroke-linejoin:round;stroke-miterlimit:10;}
	
		.st25{fill:url(#Pipe_Left_1_);stroke:#8C8C91;stroke-width:0.75;stroke-linecap:round;stroke-linejoin:round;stroke-miterlimit:10;}
	
		.st26{fill:url(#Intermediate_Piece_1_);stroke:#8C8C91;stroke-width:0.75;stroke-linecap:round;stroke-linejoin:round;stroke-miterlimit:10;}
	.st27{fill:url(#Cover_2_);stroke:#8C8C91;stroke-width:0.75;stroke-linecap:round;stroke-linejoin:round;stroke-miterlimit:10;}
	.st28{fill:none;stroke:#646567;stroke-width:0.75;stroke-linecap:round;stroke-linejoin:round;stroke-miterlimit:10;}
	.st29{fill:url(#Reflection_Line_2_);}
</style>
<g id="Mini_Pipe">
	<g id="Lock_Nut_Right">
		<rect id="Shape_24_" x="192.5" y="206.3" class="st0" width="47.1" height="72.7"/>
		<path id="Shape_Side_Underneath_9_" class="st0" d="M234,290.5c4.5,0,5.7-5.2,5.7-11.6s-1.2-11.6-5.7-11.6h-35.2
			c-4.5,0-6.2,5.2-6.2,11.6s1.7,11.6,6.2,11.6H234z"/>
		<path id="Shape_Side_Middle_11_" class="st0" d="M234,267.4c4.5,0,5.7-11.1,5.7-24.7c0-13.7-1.2-24.7-5.7-24.7h-35.2
			c-4.5,0-6.2,11.1-6.2,24.7c0,13.7,1.7,24.7,6.2,24.7H234z"/>
		<path id="Shape_Side_Top_9_" class="st0" d="M234,217.9c4.5,0,5.7-5.2,5.7-11.6c0-6.4-1.2-11.6-5.7-11.6h-35.2
			c-4.5,0-6.2,5.2-6.2,11.6c0,6.4,1.7,11.6,6.2,11.6H234z"/>
	</g>
	<g id="Connection_Ring_Right">
		<polygon id="Shape_3_" class="st1" points="200.2,296.9 198.8,297.6 190.7,297.6 189.4,296.9 189.4,188.4 190.7,187.7 
			198.8,187.7 200.2,188.4 		"/>
		<rect id="Reflection_4_" x="190.7" y="198.9" class="st2" width="8.1" height="18.7"/>
		<polyline id="Edge_Right_1_" class="st1" points="198.8,187.7 200.2,188.4 200.2,296.9 198.8,297.6 		"/>
		<polyline id="Edge_Left_1_" class="st1" points="190.7,297.6 189.4,296.9 189.4,188.4 190.7,187.7 		"/>
	</g>
	<g id="Pipe">
		<rect id="Shape_20_" x="71.2" y="190.9" class="st1" width="118.1" height="103.4"/>
		<rect id="Reflection_9_" x="71.7" y="201.4" class="st2" width="117.3" height="17.7"/>
	</g>
	<g id="Lock_Nut_Left">
		<rect id="Shape_19_" x="2.3" y="206.3" class="st0" width="50.3" height="72.7"/>
		<path id="Shape_Side_Underneath_8_" class="st0" d="M41.3,290.5c4.5,0,11.3-5.2,11.3-11.6s-6.8-11.6-11.3-11.6H8.5
			c-4.5,0-6.2,5.2-6.2,11.6s1.7,11.6,6.2,11.6H41.3z"/>
		<path id="Shape_Side_Middle_10_" class="st0" d="M41.3,267.4c4.5,0,11.3-11.1,11.3-24.7c0-13.7-6.8-24.7-11.3-24.7H8.5
			c-4.5,0-6.2,11.1-6.2,24.7c0,13.7,1.7,24.7,6.2,24.7H41.3z"/>
		<path id="Shape_Side_Top_8_" class="st0" d="M41.3,217.9c4.5,0,11.3-5.2,11.3-11.6c0-6.4-6.8-11.6-11.3-11.6H8.5
			c-4.5,0-6.2,5.2-6.2,11.6c0,6.4,1.7,11.6,6.2,11.6H41.3z"/>
	</g>
	<g id="Connection_Pipe_Middle">
		<polygon id="Shape_18_" class="st1" points="180.7,296.9 179.4,297.6 81.2,297.6 79.9,296.9 79.9,188.4 81.2,187.7 179.4,187.7 
			180.7,188.4 		"/>
		<rect id="Reflection_8_" x="81.2" y="198.8" class="st2" width="98.2" height="18.8"/>
		<polyline id="Edge_Right_6_" class="st1" points="179.4,187.7 180.7,188.4 180.7,296.9 179.4,297.6 		"/>
		<polyline id="Edge_Left_5_" class="st1" points="81.2,297.6 79.9,296.9 79.9,188.4 81.2,187.7 		"/>
	</g>
	<g id="Connection_Ring_Left">
		<polygon id="Shape_17_" class="st1" points="71.2,296.9 69.9,297.6 43.2,297.6 41.8,296.9 41.8,188.4 43.2,187.7 69.9,187.7 
			71.2,188.4 		"/>
		<rect id="Reflection_7_" x="43.2" y="198.9" class="st2" width="26.7" height="18.7"/>
		<polyline id="Edge_Right_5_" class="st1" points="69.9,187.7 71.2,188.4 71.2,296.9 69.9,297.6 		"/>
		<polyline id="Edge_Left_3_" class="st1" points="43.2,297.6 41.8,296.9 41.8,188.4 43.2,187.7 		"/>
	</g>
	<line id="Reflection_Line_1_" class="st3" x1="53.6" y1="187.7" x2="53.6" y2="297.6"/>
	<line id="Devider_Line_1_" class="st4" x1="52.6" y1="187.7" x2="52.6" y2="297.6"/>
	<g id="Pipe_Top_1_">
		<path id="Shape_15_" class="st2" d="M152.3,174.1c0,0,0,3.2,0,8.6c0,5.1,4.5,5,4.5,5s0.3,0,2.9,0c-0.6,2.1-15.1,11.8-29.4,11.8
			c-14.3,0-28.8-9.7-29.4-11.8c2.3,0,2.8,0,2.8,0s4.5,0.1,4.5-5c0-5.3,0-8.6,0-8.6H152.3z"/>
		<path id="Reflection_2_" class="st2" d="M125,174.6h-9.7v21.6c0,0,4,1.7,9.7,2.7C125,197.1,125,174.6,125,174.6z"/>
		<path id="Outline_1_" class="st0" d="M100.9,187.7h2.8c0,0,4.5,0.1,4.5-5c0-5.3,0-8.6,0-8.6h44.1c0,0,0,3.2,0,8.6
			c0,5.1,4.5,5,4.5,5h3"/>
	</g>
	<g id="Flange_Top_4_">
		<polygon id="Shape_299_" class="st1" points="84.4,174.1 83.9,173.2 83.9,163.2 84.4,162.2 176.2,162.2 176.7,163.2 176.7,173.2 
			176.2,174.1 		"/>
		<rect id="Reflection_38_" x="94.2" y="163.2" class="st2" width="15.9" height="10"/>
		<polyline id="Edge_Bottom_5_" class="st1" points="83.9,173.2 84.4,174.1 176.2,174.1 176.7,173.2 		"/>
		<polyline id="Edge_Top_5_" class="st1" points="176.7,163.2 176.2,162.2 84.4,162.2 83.9,163.2 		"/>
	</g>
	<rect id="Connection_Pipe_Right" x="144.1" y="155.2" class="st0" width="22.3" height="18.9"/>
	<rect id="Connection_Pipe_Left" x="94.2" y="155.2" class="st0" width="22.3" height="18.9"/>
</g>
<g id="Shutoff_Housing__x2B__Electric_Box">
	
		<linearGradient id="Bevelled_Edge_1_" gradientUnits="userSpaceOnUse" x1="127.9647" y1="222.2021" x2="132.5052" y2="217.4345" gradientTransform="matrix(1 0 0 -1 0 302)">
		<stop  offset="0" style="stop-color:#DEDEDE"/>
		<stop  offset="0.1461" style="stop-color:#D5D5D5"/>
		<stop  offset="0.385" style="stop-color:#BCBDBD"/>
		<stop  offset="0.6872" style="stop-color:#959596"/>
		<stop  offset="1" style="stop-color:#646567"/>
	</linearGradient>
	<path id="Bevelled_Edge" class="st5" d="M53,12.7c0-1.8,1.5-3.3,3.3-3.3h148.1c1.8,0,3.3,1.5,3.3,3.3v59.1l2.5,3.5v42.6l-2.5,3.5
		v30.4c0,1.8-1.5,3.3-3.3,3.3H56.2c-1.8,0-3.3-1.5-3.3-3.3v-30.4l-2.5-3.5V75.3l2.5-3.5L53,12.7L53,12.7z"/>
	
		<linearGradient id="Shape_Edge_Right_1_" gradientUnits="userSpaceOnUse" x1="120.5083" y1="289.3101" x2="176.3482" y2="230.9156" gradientTransform="matrix(1 0 0 -1 0 302)">
		<stop  offset="0" style="stop-color:#9A9A99"/>
		<stop  offset="0.2954" style="stop-color:#919190"/>
		<stop  offset="0.7771" style="stop-color:#797978"/>
		<stop  offset="1" style="stop-color:#6B6B6A"/>
	</linearGradient>
	<path id="Shape_Edge_Right" class="st6" d="M170.9,152.4h30.8c1.7,0,3.2-1.4,3.2-3.2v-29.3l2.4-3.3V75.5l-2.4-3.3v-57
		c0-1.7-1.4-3.2-3.2-3.2h-30.8V152.4z"/>
	<rect id="Shape_Front" x="89.7" y="12" class="st7" width="81.2" height="140.4"/>
	
		<linearGradient id="Shape_Edge_Left_1_" gradientUnits="userSpaceOnUse" x1="-108.1752" y1="348.5398" x2="280.318" y2="73.5445" gradientTransform="matrix(1 0 0 -1 0 302)">
		<stop  offset="0" style="stop-color:#FFFFFF"/>
		<stop  offset="1" style="stop-color:#7C7C7B"/>
	</linearGradient>
	<path id="Shape_Edge_Left" class="st8" d="M89.7,152.4H58.8c-1.7,0-3.2-1.4-3.2-3.2v-29.3l-2.4-3.3V75.5l2.4-3.3v-57
		c0-1.7,1.4-3.2,3.2-3.2h30.8L89.7,152.4L89.7,152.4z"/>
	<rect id="Electric_Connection_Rear_Side" x="116.5" y="155.2" class="st9" width="27.6" height="7"/>
	<path id="Shadow_Pipe_Housing_Left" class="st10" d="M82.4,32.8c0,0,7.3,3.4,7.3,8.5s0,78.6,0,93c-14.7,6.2-29.4-6.1-29.4-6.1h22.2
		L82.4,32.8L82.4,32.8z"/>
	<g id="Nuts">
		<g id="Nut_Right">
			
				<linearGradient id="Shape_Side_Right_1_" gradientUnits="userSpaceOnUse" x1="158.1928" y1="119.8362" x2="164.1734" y2="127.2445" gradientTransform="matrix(1 0 0 -1 0 302)">
				<stop  offset="0" style="stop-color:#9A9A99"/>
				<stop  offset="0.2954" style="stop-color:#919190"/>
				<stop  offset="0.7771" style="stop-color:#797978"/>
				<stop  offset="1" style="stop-color:#6B6B6A"/>
			</linearGradient>
			<rect id="Shape_Side_Right_5_" x="159.9" y="174.1" class="st11" width="4.6" height="6.2"/>
			
				<linearGradient id="Shape_Side_Middle_1_" gradientUnits="userSpaceOnUse" x1="145.9174" y1="113.4774" x2="164.3842" y2="135.882" gradientTransform="matrix(1 0 0 -1 0 302)">
				<stop  offset="0" style="stop-color:#FFFFFF"/>
				<stop  offset="1" style="stop-color:#7C7C7B"/>
			</linearGradient>
			<rect id="Shape_Side_Middle_58_" x="150.6" y="174.1" class="st12" width="9.3" height="6.2"/>
			
				<linearGradient id="Shape_Side_Left_1_" gradientUnits="userSpaceOnUse" x1="145.8798" y1="121.847" x2="149.6132" y2="126.5986" gradientTransform="matrix(1 0 0 -1 0 302)">
				<stop  offset="0" style="stop-color:#F4F4F4"/>
				<stop  offset="1" style="stop-color:#DEDEDE"/>
			</linearGradient>
			<rect id="Shape_Side_Left_5_" x="145.9" y="174.1" class="st13" width="4.6" height="6.2"/>
		</g>
		<g id="Nut_Left">
			
				<linearGradient id="Shape_Side_Right_2_" gradientUnits="userSpaceOnUse" x1="108.3054" y1="119.8518" x2="114.2856" y2="127.2596" gradientTransform="matrix(1 0 0 -1 0 302)">
				<stop  offset="0" style="stop-color:#9A9A99"/>
				<stop  offset="0.2954" style="stop-color:#919190"/>
				<stop  offset="0.7771" style="stop-color:#797978"/>
				<stop  offset="1" style="stop-color:#6B6B6A"/>
			</linearGradient>
			<rect id="Shape_Side_Right_6_" x="110" y="174.1" class="st14" width="4.6" height="6.2"/>
			
				<linearGradient id="Shape_Side_Middle_2_" gradientUnits="userSpaceOnUse" x1="96.0288" y1="113.4912" x2="114.4982" y2="135.8989" gradientTransform="matrix(1 0 0 -1 0 302)">
				<stop  offset="0" style="stop-color:#FFFFFF"/>
				<stop  offset="1" style="stop-color:#7C7C7B"/>
			</linearGradient>
			<rect id="Shape_Side_Middle_59_" x="100.7" y="174.1" class="st15" width="9.3" height="6.2"/>
			
				<linearGradient id="Shape_Side_Left_2_" gradientUnits="userSpaceOnUse" x1="95.9915" y1="121.862" x2="99.725" y2="126.6136" gradientTransform="matrix(1 0 0 -1 0 302)">
				<stop  offset="0" style="stop-color:#F4F4F4"/>
				<stop  offset="1" style="stop-color:#DEDEDE"/>
			</linearGradient>
			<rect id="Shape_Side_Left_6_" x="96" y="174.1" class="st16" width="4.6" height="6.2"/>
		</g>
	</g>
	
		<linearGradient id="Reflection_Line_Vertical_Right_1_" gradientUnits="userSpaceOnUse" x1="163.874" y1="219.8" x2="172.46" y2="219.8" gradientTransform="matrix(1 0 0 -1 0 302)">
		<stop  offset="0" style="stop-color:#DEDEDE"/>
		<stop  offset="0.1352" style="stop-color:#D5D5D5"/>
		<stop  offset="0.3563" style="stop-color:#BDBDBC"/>
		<stop  offset="0.6359" style="stop-color:#959595"/>
		<stop  offset="0.9602" style="stop-color:#5F5E5E"/>
		<stop  offset="1" style="stop-color:#575756"/>
	</linearGradient>
	<rect id="Reflection_Line_Vertical_Right" x="169.8" y="12" class="st17" width="2.1" height="140.4"/>
	
		<linearGradient id="Reflection_Line_Vertical_Left_1_" gradientUnits="userSpaceOnUse" x1="89.3926" y1="219.8" x2="91.4511" y2="219.8" gradientTransform="matrix(1 0 0 -1 0 302)">
		<stop  offset="0" style="stop-color:#DEDEDE"/>
		<stop  offset="0.1352" style="stop-color:#D5D5D5"/>
		<stop  offset="0.3563" style="stop-color:#BDBDBC"/>
		<stop  offset="0.6359" style="stop-color:#959595"/>
		<stop  offset="0.9602" style="stop-color:#5F5E5E"/>
		<stop  offset="1" style="stop-color:#575756"/>
	</linearGradient>
	<rect id="Reflection_Line_Vertical_Left" x="88.6" y="12" class="st18" width="2.1" height="140.4"/>
	
		<linearGradient id="Edge_Top_1_" gradientUnits="userSpaceOnUse" x1="77.2036" y1="228.45" x2="245.4439" y2="228.45" gradientTransform="matrix(1 0 0 -1 0 302)">
		<stop  offset="0" style="stop-color:#FFFFFF"/>
		<stop  offset="1" style="stop-color:#7C7C7B"/>
	</linearGradient>
	<polygon id="Edge_Top" class="st19" points="210.1,75.3 50.5,75.3 53,71.8 207.6,71.8 	"/>
	
		<linearGradient id="Edge_Bottom_1_" gradientUnits="userSpaceOnUse" x1="33.6382" y1="182.4" x2="353.2441" y2="182.4" gradientTransform="matrix(1 0 0 -1 0 302)">
		<stop  offset="0" style="stop-color:#A5A5A5"/>
		<stop  offset="2.988029e-02" style="stop-color:#A0A0A0"/>
		<stop  offset="0.3301" style="stop-color:#777777"/>
		<stop  offset="0.6022" style="stop-color:#595959"/>
		<stop  offset="0.8346" style="stop-color:#474747"/>
		<stop  offset="1" style="stop-color:#404040"/>
	</linearGradient>
	<polygon id="Edge_Bottom" class="st20" points="207.6,121.3 53,121.3 50.5,117.9 210.1,117.9 	"/>
	<polyline id="Shadow_Left_Top_Side_Edge" class="st21" points="88.6,75.3 82.4,75.3 82.4,71.8 88.6,71.8 	"/>
	<polyline id="Shadow_Right_Top_Side_Edge" class="st22" points="170.9,71.8 207.6,71.8 210.1,75.3 170.9,75.3 	"/>
	<polyline id="Shadow_Right_Bottom_Side_Edge" class="st23" points="170.9,117.9 210.1,117.9 207.6,121.3 170.9,121.3 	"/>
	<g id="Pipes_Housing">
		
			<linearGradient id="Pipe_Right_1_" gradientUnits="userSpaceOnUse" x1="179.0352" y1="221.45" x2="199.502" y2="221.45" gradientTransform="matrix(1 0 0 -1 0 302)">
			<stop  offset="9.127870e-03" style="stop-color:#77787A"/>
			<stop  offset="1.341380e-02" style="stop-color:#78797B"/>
			<stop  offset="0.1426" style="stop-color:#969697"/>
			<stop  offset="0.2535" style="stop-color:#A8A9A8"/>
			<stop  offset="0.3324" style="stop-color:#AFAFAE"/>
			<stop  offset="0.8767" style="stop-color:#686867"/>
			<stop  offset="1" style="stop-color:#575756"/>
		</linearGradient>
		<rect id="Pipe_Right" x="178.2" y="32.8" class="st24" width="22.2" height="95.5"/>
		
			<linearGradient id="Pipe_Left_1_" gradientUnits="userSpaceOnUse" x1="60.7012" y1="221.45" x2="82.0689" y2="221.45" gradientTransform="matrix(1 0 0 -1 0 302)">
			<stop  offset="9.127870e-03" style="stop-color:#AFAFAE"/>
			<stop  offset="4.390259e-02" style="stop-color:#B6B6B5"/>
			<stop  offset="0.1547" style="stop-color:#C8C8C7"/>
			<stop  offset="0.2338" style="stop-color:#CFCFCE"/>
			<stop  offset="0.2805" style="stop-color:#C8C8C7"/>
			<stop  offset="0.4293" style="stop-color:#B6B6B5"/>
			<stop  offset="0.5355" style="stop-color:#AFAFAE"/>
			<stop  offset="0.9142" style="stop-color:#686867"/>
			<stop  offset="1" style="stop-color:#575756"/>
		</linearGradient>
		<rect id="Pipe_Left" x="60.2" y="32.8" class="st25" width="22.2" height="95.5"/>
	</g>
	<g id="Cover_Top">
		
			<linearGradient id="Intermediate_Piece_1_" gradientUnits="userSpaceOnUse" x1="162.0771" y1="293.8" x2="190.0205" y2="293.8" gradientTransform="matrix(1 0 0 -1 0 302)">
			<stop  offset="0" style="stop-color:#A5A5A5"/>
			<stop  offset="4.758149e-02" style="stop-color:#B5B5B5"/>
			<stop  offset="0.1509" style="stop-color:#D3D3D3"/>
			<stop  offset="0.2395" style="stop-color:#E5E5E5"/>
			<stop  offset="0.3025" style="stop-color:#ECECEC"/>
			<stop  offset="0.4074" style="stop-color:#E8E8E8"/>
			<stop  offset="0.514" style="stop-color:#DCDCDC"/>
			<stop  offset="0.6214" style="stop-color:#C7C7C7"/>
			<stop  offset="0.7294" style="stop-color:#ABABAB"/>
			<stop  offset="0.8378" style="stop-color:#868686"/>
			<stop  offset="0.9452" style="stop-color:#5A5A5A"/>
			<stop  offset="1" style="stop-color:#404040"/>
		</linearGradient>
		<rect id="Intermediate_Piece" x="160.3" y="6.9" class="st26" width="34.4" height="2.6"/>
		
			<linearGradient id="Cover_2_" gradientUnits="userSpaceOnUse" x1="158.2373" y1="297.4" x2="197.1269" y2="297.4" gradientTransform="matrix(1 0 0 -1 0 302)">
			<stop  offset="0" style="stop-color:#A5A5A5"/>
			<stop  offset="4.758149e-02" style="stop-color:#B5B5B5"/>
			<stop  offset="0.1509" style="stop-color:#D3D3D3"/>
			<stop  offset="0.2395" style="stop-color:#E5E5E5"/>
			<stop  offset="0.3025" style="stop-color:#ECECEC"/>
			<stop  offset="0.4074" style="stop-color:#E8E8E8"/>
			<stop  offset="0.514" style="stop-color:#DCDCDC"/>
			<stop  offset="0.6214" style="stop-color:#C7C7C7"/>
			<stop  offset="0.7294" style="stop-color:#ABABAB"/>
			<stop  offset="0.8378" style="stop-color:#868686"/>
			<stop  offset="0.9452" style="stop-color:#5A5A5A"/>
			<stop  offset="1" style="stop-color:#404040"/>
		</linearGradient>
		<rect id="Cover_1_" x="157.6" y="2.3" class="st27" width="39.8" height="4.6"/>
	</g>
	<line id="Devider_Line" class="st28" x1="50.5" y1="87.3" x2="210.1" y2="87.3"/>
	
		<linearGradient id="Reflection_Line_2_" gradientUnits="userSpaceOnUse" x1="168.4629" y1="213.9" x2="171.5556" y2="213.9" gradientTransform="matrix(1 0 0 -1 0 302)">
		<stop  offset="0" style="stop-color:#DEDEDE"/>
		<stop  offset="1" style="stop-color:#AFAFAE"/>
	</linearGradient>
	<rect id="Reflection_Line" x="50.9" y="87.7" class="st29" width="158.7" height="0.8"/>
</g>
</svg>
