<?xml version="1.0" encoding="utf-8"?>
<!-- Generator: Adobe Illustrator 24.1.0, SVG Export Plug-In . SVG Version: 6.00 Build 0)  -->
<svg version="1.1" id="Mini_Electric_Safety_Shutoff_Valve"
	 xmlns="http://www.w3.org/2000/svg" xmlns:xlink="http://www.w3.org/1999/xlink" x="0px" y="0px" viewBox="0 0 242 300"
	 style="enable-background:new 0 0 242 300;" xml:space="preserve">
<style type="text/css">
	.st0{fill:#51CC00;stroke:#012E00;stroke-width:0.75;stroke-linecap:round;stroke-linejoin:round;stroke-miterlimit:10;}
	.st1{fill:#51CC00;stroke:#012E00;stroke-width:0.75;stroke-linejoin:round;stroke-miterlimit:10;}
	.st2{fill:#51CC00;stroke:#012E00;stroke-miterlimit:10;}
</style>
<g id="Lock_Nut_Right">
	<rect id="Shape_24_" x="192.5" y="206.3" class="st0" width="47.1" height="72.7"/>
	<path id="Shape_Side_Underneath_9_" class="st0" d="M234,290.5c4.5,0,5.7-5.2,5.7-11.6s-1.2-11.6-5.7-11.6h-35.2
		c-4.5,0-6.2,5.2-6.2,11.6s1.7,11.6,6.2,11.6H234z"/>
	<path id="Shape_Side_Middle_11_" class="st0" d="M234,267.4c4.5,0,5.7-11.1,5.7-24.7c0-13.7-1.2-24.7-5.7-24.7h-35.2
		c-4.5,0-6.2,11.1-6.2,24.7c0,13.7,1.7,24.7,6.2,24.7H234z"/>
	<path id="Shape_Side_Top_9_" class="st0" d="M234,217.9c4.5,0,5.7-5.2,5.7-11.6c0-6.4-1.2-11.6-5.7-11.6h-35.2
		c-4.5,0-6.2,5.2-6.2,11.6c0,6.4,1.7,11.6,6.2,11.6H234z"/>
</g>
<g id="Connection_Ring_Right">
	<polygon id="Shape_3_" class="st1" points="200.2,296.9 198.8,297.6 190.7,297.6 189.4,296.9 189.4,188.4 190.7,187.7 198.8,187.7 
		200.2,188.4 	"/>
	<rect id="Reflection_4_" x="190.7" y="198.9" class="st2" width="8.1" height="18.7"/>
	<polyline id="Edge_Right_1_" class="st1" points="198.8,187.7 200.2,188.4 200.2,296.9 198.8,297.6 	"/>
	<polyline id="Edge_Left_1_" class="st1" points="190.7,297.6 189.4,296.9 189.4,188.4 190.7,187.7 	"/>
</g>
<g id="Pipe">
	<rect id="Shape_20_" x="71.2" y="190.9" class="st1" width="118.1" height="103.4"/>
	<rect id="Reflection_9_" x="71.7" y="201.4" class="st2" width="117.3" height="17.7"/>
</g>
<g id="Lock_Nut_Left">
	<rect id="Shape_19_" x="2.3" y="206.3" class="st0" width="50.3" height="72.7"/>
	<path id="Shape_Side_Underneath_8_" class="st0" d="M41.3,290.5c4.5,0,11.3-5.2,11.3-11.6s-6.8-11.6-11.3-11.6H8.5
		c-4.5,0-6.2,5.2-6.2,11.6s1.7,11.6,6.2,11.6H41.3z"/>
	<path id="Shape_Side_Middle_10_" class="st0" d="M41.3,267.4c4.5,0,11.3-11.1,11.3-24.7c0-13.7-6.8-24.7-11.3-24.7H8.5
		c-4.5,0-6.2,11.1-6.2,24.7c0,13.7,1.7,24.7,6.2,24.7H41.3z"/>
	<path id="Shape_Side_Top_8_" class="st0" d="M41.3,217.9c4.5,0,11.3-5.2,11.3-11.6c0-6.4-6.8-11.6-11.3-11.6H8.5
		c-4.5,0-6.2,5.2-6.2,11.6c0,6.4,1.7,11.6,6.2,11.6H41.3z"/>
</g>
<g id="Connection_Pipe_Middle">
	<polygon id="Shape_18_" class="st1" points="180.7,296.9 179.4,297.6 81.2,297.6 79.9,296.9 79.9,188.4 81.2,187.7 179.4,187.7 
		180.7,188.4 	"/>
	<rect id="Reflection_8_" x="81.2" y="198.8" class="st2" width="98.2" height="18.8"/>
	<polyline id="Edge_Right_6_" class="st1" points="179.4,187.7 180.7,188.4 180.7,296.9 179.4,297.6 	"/>
	<polyline id="Edge_Left_5_" class="st1" points="81.2,297.6 79.9,296.9 79.9,188.4 81.2,187.7 	"/>
</g>
<g id="Connection_Ring_Left">
	<polygon id="Shape_17_" class="st1" points="71.2,296.9 69.9,297.6 43.2,297.6 41.8,296.9 41.8,188.4 43.2,187.7 69.9,187.7 
		71.2,188.4 	"/>
	<rect id="Reflection_7_" x="43.2" y="198.9" class="st2" width="26.7" height="18.7"/>
	<polyline id="Edge_Right_5_" class="st1" points="69.9,187.7 71.2,188.4 71.2,296.9 69.9,297.6 	"/>
	<polyline id="Edge_Left_3_" class="st1" points="43.2,297.6 41.8,296.9 41.8,188.4 43.2,187.7 	"/>
</g>
<line id="Reflection_Line_1_" class="st0" x1="53.6" y1="187.7" x2="53.6" y2="297.6"/>
<line id="Devider_Line_1_" class="st0" x1="52.6" y1="187.7" x2="52.6" y2="297.6"/>
<g id="Pipe_Top_1_">
	<path id="Shape_15_" class="st2" d="M152.3,174.1c0,0,0,3.2,0,8.6c0,5.1,4.5,5,4.5,5s0.3,0,2.9,0c-0.6,2.1-15.1,11.8-29.4,11.8
		c-14.3,0-28.8-9.7-29.4-11.8c2.3,0,2.8,0,2.8,0s4.5,0.1,4.5-5c0-5.3,0-8.6,0-8.6H152.3z"/>
	<path id="Reflection_2_" class="st2" d="M125,174.6h-9.7v21.6c0,0,4,1.7,9.7,2.7C125,197.1,125,174.6,125,174.6z"/>
	<path id="Outline_1_" class="st0" d="M100.9,187.7h2.8c0,0,4.5,0.1,4.5-5c0-5.3,0-8.6,0-8.6h44.1c0,0,0,3.2,0,8.6
		c0,5.1,4.5,5,4.5,5h3"/>
</g>
<g id="Flange_Top_4_">
	<polygon id="Shape_299_" class="st1" points="84.4,174.1 83.9,173.2 83.9,163.2 84.4,162.2 176.2,162.2 176.7,163.2 176.7,173.2 
		176.2,174.1 	"/>
	<rect id="Reflection_38_" x="94.2" y="163.2" class="st2" width="15.9" height="10"/>
	<polyline id="Edge_Bottom_5_" class="st1" points="83.9,173.2 84.4,174.1 176.2,174.1 176.7,173.2 	"/>
	<polyline id="Edge_Top_5_" class="st1" points="176.7,163.2 176.2,162.2 84.4,162.2 83.9,163.2 	"/>
</g>
<rect id="Connection_Pipe_Right" x="144.1" y="155.2" class="st0" width="22.3" height="18.9"/>
<rect id="Connection_Pipe_Left" x="94.2" y="155.2" class="st0" width="22.3" height="18.9"/>
<path id="Bevelled_Edge" class="st0" d="M53,12.7c0-1.8,1.5-3.3,3.3-3.3h148.1c1.8,0,3.3,1.5,3.3,3.3v59.1l2.5,3.5v42.6l-2.5,3.5
	v30.4c0,1.8-1.5,3.3-3.3,3.3H56.2c-1.8,0-3.3-1.5-3.3-3.3v-30.4l-2.5-3.5V75.3l2.5-3.5L53,12.7L53,12.7z"/>
<path id="Shape_Edge_Right" class="st2" d="M170.9,152.4h30.8c1.7,0,3.2-1.4,3.2-3.2v-29.3l2.4-3.3V75.5l-2.4-3.3v-57
	c0-1.7-1.4-3.2-3.2-3.2h-30.8V152.4z"/>
<rect id="Shape_Front" x="89.7" y="12" class="st2" width="81.2" height="140.4"/>
<path id="Shape_Edge_Left" class="st2" d="M89.7,152.4H58.8c-1.7,0-3.2-1.4-3.2-3.2v-29.3l-2.4-3.3V75.5l2.4-3.3v-57
	c0-1.7,1.4-3.2,3.2-3.2h30.8L89.7,152.4L89.7,152.4z"/>
<rect id="Electric_Connection_Rear_Side" x="116.5" y="155.2" class="st0" width="27.6" height="7"/>
<path id="Shadow_Pipe_Housing_Left" class="st0" d="M82.4,32.8c0,0,7.3,3.4,7.3,8.5s0,78.6,0,93c-14.7,6.2-29.4-6.1-29.4-6.1h22.2
	L82.4,32.8L82.4,32.8z"/>
<g id="Nuts">
	<g id="Nut_Right">
		<rect id="Shape_Side_Right_5_" x="159.9" y="174.1" class="st0" width="4.6" height="6.2"/>
		<rect id="Shape_Side_Middle_58_" x="150.6" y="174.1" class="st0" width="9.3" height="6.2"/>
		<rect id="Shape_Side_Left_5_" x="145.9" y="174.1" class="st0" width="4.6" height="6.2"/>
	</g>
	<g id="Nut_Left">
		<rect id="Shape_Side_Right_6_" x="110" y="174.1" class="st0" width="4.6" height="6.2"/>
		<rect id="Shape_Side_Middle_59_" x="100.7" y="174.1" class="st0" width="9.3" height="6.2"/>
		<rect id="Shape_Side_Left_6_" x="96" y="174.1" class="st0" width="4.6" height="6.2"/>
	</g>
</g>
<rect id="Reflection_Line_Vertical_Right" x="169.8" y="12" class="st2" width="2.1" height="140.4"/>
<rect id="Reflection_Line_Vertical_Left" x="88.6" y="12" class="st2" width="2.1" height="140.4"/>
<polygon id="Edge_Top" class="st0" points="210.1,75.3 50.5,75.3 53,71.8 207.6,71.8 "/>
<polygon id="Edge_Bottom" class="st0" points="207.6,121.3 53,121.3 50.5,117.9 210.1,117.9 "/>
<polyline id="Shadow_Left_Top_Side_Edge" class="st1" points="88.6,75.3 82.4,75.3 82.4,71.8 88.6,71.8 "/>
<polyline id="Shadow_Right_Top_Side_Edge" class="st0" points="170.9,71.8 207.6,71.8 210.1,75.3 170.9,75.3 "/>
<polyline id="Shadow_Right_Bottom_Side_Edge" class="st1" points="170.9,117.9 210.1,117.9 207.6,121.3 170.9,121.3 "/>
<g id="Pipes_Housing">
	<rect id="Pipe_Right" x="178.2" y="32.8" class="st0" width="22.2" height="95.5"/>
	<rect id="Pipe_Left" x="60.2" y="32.8" class="st0" width="22.2" height="95.5"/>
</g>
<g id="Cover_Top">
	<rect id="Intermediate_Piece" x="160.3" y="6.9" class="st0" width="34.4" height="2.6"/>
	<rect id="Cover_1_" x="157.6" y="2.3" class="st0" width="39.8" height="4.6"/>
</g>
<line id="Devider_Line" class="st0" x1="50.5" y1="87.3" x2="210.1" y2="87.3"/>
<rect id="Reflection_Line" x="50.9" y="87.7" class="st2" width="158.7" height="0.8"/>
</svg>
